PathFileType	4	(X/Y/Z)	 s07c0101.trc
DataRate	CameraRate	NumFrames	NumMarkers	Units	OrigDataRate	OrigDataStartFrame	OrigNumFrames
200	200	7	48	mm	200	251	2000
Frame#	Time	racr			lacr			c7			jug			rlel			rdr			llel			ldr			s2			lic			ric			lasi			rasi			rpsi			lpsi			rgt			lgt			rth1			rth2			rth3			rth4			rlfc			rmfc			rsh1			rsh2			rsh3			rsh4			rlmal			rcal			rtoe			rmt5			lth1			lth2			lth4			lth3			llfc			lmfc			lsh1			lsh2			lsh3			lsh4			llmal			lcal			ltoe			lmt5			SBIKE			LBIKE			RBIKE			
		X1	Y1	Z1	X2	Y2	Z2	X3	Y3	Z3	X4	Y4	Z4	X5	Y5	Z5	X6	Y6	Z6	X7	Y7	Z7	X8	Y8	Z8	X9	Y9	Z9	X10	Y10	Z10	X11	Y11	Z11	X12	Y12	Z12	X13	Y13	Z13	X14	Y14	Z14	X15	Y15	Z15	X16	Y16	Z16	X17	Y17	Z17	X18	Y18	Z18	X19	Y19	Z19	X20	Y20	Z20	X21	Y21	Z21	X22	Y22	Z22	X23	Y23	Z23	X24	Y24	Z24	X25	Y25	Z25	X26	Y26	Z26	X27	Y27	Z27	X28	Y28	Z28	X29	Y29	Z29	X30	Y30	Z30	X31	Y31	Z31	X32	Y32	Z32	X33	Y33	Z33	X34	Y34	Z34	X35	Y35	Z35	X36	Y36	Z36	X37	Y37	Z37	X38	Y38	Z38	X39	Y39	Z39	X40	Y40	Z40	X41	Y41	Z41	X42	Y42	Z42	X43	Y43	Z43	X44	Y44	Z44	X45	Y45	Z45	X46	Y46	Z46	X47	Y47	Z47	X48	Y48	Z48	
251	1.2550	509.229847	1458.617110	-96.358909	490.028173	1461.982438	-346.837501	458.131489	1498.234404	-221.690795	428.939899	1349.420976	-217.492369	532.632527	1125.432088	40.203752	725.904695	916.115657	-53.455168	537.658225	1139.741201	-469.511554	727.358809	915.393218	-397.203741	-109.686704	1233.430802	-220.986757	40.955617	1296.148785	-344.960374	77.055507	1239.980559	-74.803413	72.869553	1222.355751	-343.060542	88.358810	1187.826075	-98.847530	-73.418116	1263.016435	-166.544411	-74.135829	1289.898551	-270.153516	5.078859	1110.094715	-48.231223	-2.571973	1165.707384	-415.142178	80.313429	976.796905	-36.415762	138.146886	910.183284	-43.601964	156.564344	826.597871	-47.469402	168.515889	926.422959	-58.698390	216.759952	697.879491	-84.167190	204.833489	683.015546	-187.177980	161.100763	569.590447	-56.449361	151.236928	482.330296	-74.315837	103.665785	409.808838	-68.779561	166.693361	480.139059	-111.497446	49.406159	282.327257	-71.456336	-22.629226	263.069558	-97.970946	243.607555	147.580528	-120.693121	161.061785	140.461251	-48.402222	99.556707	1102.893105	-416.950462	187.632723	1095.483962	-417.676090	199.948878	1128.618594	-406.030077	261.137754	1045.217807	-415.543403	416.083433	954.667443	-383.957488	408.124822	939.516101	-281.685967	336.917247	828.980692	-398.922663	300.106948	753.664880	-378.262030	228.956002	698.573090	-385.868507	303.425524	755.794630	-336.329057	136.291255	600.579373	-387.824720	57.693957	575.704115	-354.470600	338.341313	504.574197	-350.971904	254.870228	495.509571	-414.974805	-260.003253	981.142414	-230.223187	-76.059337	83.800486	-435.267948	-81.980379	79.602282	-37.921644	
252	1.2600	509.198507	1458.326968	-97.051940	488.920553	1461.826661	-347.115227	457.655054	1497.977097	-222.011067	428.390352	1349.177638	-217.748220	532.879522	1125.411643	40.086937	725.829029	915.955998	-53.427947	536.002849	1139.544683	-470.289986	726.907794	916.285907	-397.560296	-110.591195	1232.917859	-219.304324	44.299264	1300.589917	-356.984099	76.705616	1239.015726	-74.211837	71.085893	1222.823982	-341.285600	87.961653	1187.692280	-98.037931	-74.172365	1262.638321	-164.633234	-75.266911	1289.691693	-268.481016	5.366999	1109.565386	-47.158137	-3.990425	1165.620209	-413.748327	82.584077	977.077418	-36.940535	141.337231	911.397162	-45.091317	161.073745	828.081192	-49.283541	171.212201	928.039212	-60.525406	221.282749	699.841481	-86.449765	208.067925	685.213588	-189.354490	163.625080	572.280915	-58.187355	152.024189	485.164897	-75.788643	103.221923	413.635951	-69.714676	167.198424	482.687456	-113.070719	46.405653	287.464482	-71.523721	-26.208776	269.870681	-98.227429	236.763747	147.183836	-120.724070	154.063264	142.520282	-48.517596	97.998510	1102.146309	-416.024187	186.036858	1094.652855	-417.004733	198.468066	1127.855014	-405.664632	259.468590	1044.371527	-415.069110	414.908034	954.157400	-383.947189	407.321860	938.625714	-281.693443	337.456023	827.470521	-399.149195	302.040009	751.429286	-378.674169	231.646148	695.269595	-386.181432	305.426057	753.524229	-336.703055	140.361883	595.326440	-388.149729	61.929408	568.767503	-354.375692	344.526216	504.768067	-351.036282	261.446214	493.229904	-415.387622	-260.000404	981.131147	-230.121974	-76.065903	83.774909	-435.261590	-81.979963	79.576635	-37.917220	
253	1.2650	509.094574	1457.898580	-97.577701	487.919191	1461.647770	-347.595216	457.210879	1497.491597	-222.205341	428.153106	1348.649508	-217.937538	532.832288	1125.213838	40.068416	725.685507	915.752461	-53.326783	534.268300	1139.162257	-471.074177	726.494336	917.145160	-398.075995	-111.590913	1232.462073	-217.966167	42.685934	1300.729359	-355.606542	76.274570	1238.123139	-73.856967	69.783215	1223.018216	-340.270250	87.671311	1187.554214	-97.131914	-75.100694	1262.915839	-161.910344	-76.436504	1289.458157	-266.842812	5.721058	1108.942637	-46.169509	-5.480489	1165.312803	-412.271835	85.039350	977.490483	-37.453928	144.748816	912.876451	-46.657378	165.909118	830.011010	-51.200556	174.228139	930.084965	-62.083817	226.078261	701.634921	-88.705721	211.113455	687.768190	-191.430825	166.368038	575.211275	-59.800214	153.010632	488.225449	-77.290247	102.929382	417.624041	-70.566306	167.889743	485.385763	-114.596816	43.503363	292.620938	-71.720679	-29.603048	276.970321	-98.492439	229.968331	146.878335	-120.787027	147.240747	144.884251	-48.650043	96.417963	1101.106871	-415.085203	184.448044	1093.391254	-416.356636	196.950324	1126.624908	-405.247204	257.678464	1042.961482	-414.424770	413.345160	952.718791	-383.977084	406.200830	936.994619	-281.872879	337.577839	825.102481	-399.454796	303.464779	748.328917	-379.217901	233.966899	691.067345	-386.566509	306.836581	750.371797	-337.331710	143.709182	589.847969	-390.789505	66.393393	560.560903	-355.348051	350.413778	504.684059	-351.297336	267.657406	490.579610	-415.872895	-259.995576	981.101014	-229.967385	-76.065560	83.753316	-435.268665	-81.984156	79.538924	-37.933287	
254	1.2700	508.946641	1457.234043	-98.018830	486.781305	1461.265192	-347.778095	456.733324	1496.879844	-222.317796	427.585149	1348.053840	-218.027980	532.536977	1124.829556	40.120967	725.414978	915.517219	-53.178696	532.572176	1138.651712	-471.772515	725.857775	917.904816	-398.413742	-112.388414	1231.686052	-216.203445	41.133147	1300.822731	-354.228735	75.847105	1237.568429	-72.676166	68.314972	1222.988079	-339.023538	87.374381	1187.345622	-96.117982	-75.767135	1262.227039	-160.030696	-77.629834	1288.999506	-264.992376	6.168394	1108.254112	-45.154824	-6.998968	1164.938819	-410.774031	87.736154	978.032502	-37.897670	148.371426	914.444494	-48.242013	171.093166	831.955461	-53.384002	177.423102	932.422293	-63.557246	231.443055	704.041016	-90.848179	214.641189	690.145445	-193.729075	169.221865	578.029278	-61.515779	154.054773	491.255709	-78.669820	102.691153	421.752693	-71.424441	168.641143	488.152669	-116.079319	40.765976	297.936934	-71.900253	-32.679562	284.292646	-98.793254	223.172614	146.846947	-120.818407	140.432457	147.469793	-48.747776	94.826841	1099.820853	-414.222923	182.748721	1091.736032	-415.832492	195.498911	1124.972983	-404.826733	255.724667	1041.022611	-414.106219	411.476574	950.539838	-384.226149	404.730474	934.504281	-282.159791	337.319218	821.869419	-399.864163	304.432847	744.505454	-379.785077	235.823636	686.170619	-387.467566	307.816116	746.547361	-337.984149	147.026959	583.234475	-391.122772	70.554416	551.602451	-355.747960	356.107406	504.376039	-351.384781	273.919652	487.643834	-416.072903	-259.995906	981.073332	-229.804720	-76.083621	83.720026	-435.254070	-81.999816	79.517057	-37.906040	
255	1.2750	508.787442	1456.431458	-98.295393	485.624121	1460.776096	-348.062113	456.242299	1496.203316	-222.466513	426.879884	1347.418514	-218.131504	531.921715	1124.202764	40.221330	725.078565	915.239875	-52.988242	530.660241	1138.076677	-472.645466	725.114668	918.564566	-398.809340	-113.232382	1230.905304	-214.401379	39.533499	1300.866043	-352.931431	75.395220	1237.147685	-71.447705	67.065662	1223.125065	-338.157687	87.093538	1187.019488	-95.259716	-76.334012	1261.476850	-158.287853	-78.876546	1288.407086	-263.038854	6.788582	1107.412288	-44.084849	-8.568089	1164.386843	-409.211169	90.589104	978.692072	-38.257256	152.059628	916.240257	-49.822097	176.276132	834.161832	-55.631623	180.770140	934.744095	-65.019480	236.249826	706.269899	-93.219962	218.238957	692.610000	-195.943056	171.789243	580.981018	-63.379056	155.786298	494.654768	-79.821986	102.608988	425.920932	-72.291744	169.769477	490.899922	-117.419788	38.212915	303.570581	-71.887715	-35.579433	291.711360	-99.012929	216.429596	147.305542	-120.881959	133.791933	150.393515	-48.873258	93.165691	1098.303164	-413.592036	181.108608	1089.699849	-415.395476	194.066710	1122.920047	-404.542167	253.864674	1038.526913	-413.831375	409.352614	947.467115	-384.599108	402.965441	931.222213	-282.690720	336.558765	817.842575	-400.498084	304.950430	739.909978	-380.399383	237.225875	680.492271	-388.025070	308.328120	741.993295	-338.455891	149.939128	574.143450	-392.508732	74.517473	541.978444	-356.079426	361.435276	503.697701	-351.748131	279.693092	484.593105	-416.746854	-259.974673	981.003315	-229.637033	-76.094763	83.661706	-435.256941	-81.987800	79.490030	-37.910819	
256	1.2800	508.591493	1455.502046	-98.605040	484.514491	1460.328760	-348.488411	455.720980	1495.496223	-222.542844	426.199644	1346.737356	-218.322107	531.046939	1123.500709	40.462191	724.634817	915.026295	-52.773675	528.772653	1137.415198	-473.364564	724.275230	919.081324	-399.136298	-114.007905	1230.064556	-212.663279	37.722728	1300.668177	-351.544294	74.903184	1236.961100	-70.543540	65.726191	1223.050918	-337.251102	86.789077	1186.734573	-94.387228	-76.136659	1259.891676	-157.455462	-80.138234	1287.365518	-261.170899	7.239234	1106.765017	-43.075004	-10.078307	1163.810029	-407.667945	93.497741	979.406861	-38.788707	155.804037	918.243480	-51.262027	181.439149	836.504227	-57.863674	184.090912	937.319551	-66.540932	241.161908	708.366782	-95.266889	222.024282	695.106471	-197.957631	174.724506	584.002042	-64.895353	156.979734	497.800576	-81.033508	102.558430	430.239812	-73.057374	170.903476	493.764695	-118.737047	35.893634	309.351378	-71.909156	-38.188754	299.374281	-99.151557	209.762133	147.970320	-120.998795	127.391764	153.642099	-49.015960	91.577549	1096.688444	-412.950382	179.408908	1087.464463	-415.109475	192.663127	1120.610836	-404.327796	251.892307	1035.530205	-413.896214	406.891983	943.775690	-385.137512	400.920910	927.336148	-283.471148	335.477749	813.037788	-401.065163	305.165612	734.587951	-381.038880	238.420615	674.168105	-388.525761	308.449798	736.780015	-339.129757	153.184374	568.094605	-390.922712	78.447085	531.652648	-356.512814	366.489459	502.723843	-352.104497	285.306042	480.937013	-417.059563	-259.967224	980.957453	-229.541182	-76.096986	83.641948	-435.238990	-81.971965	79.453475	-37.899605	
257	1.2850	508.364416	1454.461619	-98.875726	483.263310	1459.690185	-348.512955	455.193748	1494.722512	-222.571491	425.181196	1346.059507	-218.358926	530.164489	1122.504743	40.718538	724.104473	914.849288	-52.563992	526.786335	1136.725527	-474.062300	723.302248	919.604573	-399.391567	-114.778051	1229.125847	-210.779953	36.026616	1300.493112	-350.378524	74.327206	1236.612483	-69.462553	64.489083	1222.972909	-336.432675	86.638783	1186.472920	-93.571286	-76.794473	1259.110468	-155.758099	-81.357060	1286.666079	-259.405119	8.202513	1105.874413	-42.209098	-11.489044	1163.050883	-406.126874	96.437099	980.218987	-39.559038	159.597620	920.025209	-52.723110	186.343636	838.903712	-60.003585	187.489987	939.652067	-68.172798	246.047336	710.342355	-97.066964	225.913936	697.590894	-199.834844	177.691048	587.063454	-66.360580	157.668070	501.188780	-82.487654	103.170728	434.692506	-73.652816	171.450154	496.879585	-120.153623	33.852610	314.825981	-72.073000	-40.592460	307.047555	-99.101618	203.094080	148.960702	-121.079835	121.004606	157.124601	-49.135763	89.957367	1094.974905	-412.383883	177.726649	1085.053179	-414.881834	191.271164	1118.105367	-404.220137	249.765616	1032.548923	-413.983790	404.125155	939.505384	-385.947132	398.682585	922.821359	-284.464188	334.213192	807.565220	-401.797761	305.217692	728.582197	-381.597078	239.422782	667.139006	-389.026249	308.450872	731.028721	-339.732279	156.422800	558.611088	-389.051522	82.478512	521.012755	-356.714117	371.241129	501.332651	-352.258944	290.870658	476.903538	-417.288250	-259.972250	980.847523	-229.323891	-76.102484	83.604304	-435.202381	-81.997206	79.448783	-37.869540	
